<?xml version="1.0" encoding="UTF-8"?>
<svg version="1.1" xmlns="http://www.w3.org/2000/svg" width="1000" height="1000">
<path d="M0 0 C330 0 660 0 1000 0 C1000 330 1000 660 1000 1000 C670 1000 340 1000 0 1000 C0 670 0 340 0 0 Z " fill="#FEFEFE" transform="translate(0,0)"/>
<path d="M0 0 C0.66249126 -0.00044186 1.32498253 -0.00088371 2.00754929 -0.00133896 C24.21691751 -0.00908595 46.18828737 0.59051817 68.25 3.25 C68.96643677 3.33485657 69.68287354 3.41971313 70.42102051 3.50714111 C154.04995718 13.47751786 238.36207482 40.20062841 340.43359375 126.171875 C341.71538864 127.63835861 343.04654655 129.06239106 344.41015625 130.453125 C377.03718607 164.19424852 393.90288239 211.86102636 393.59936523 258.16040039 C392.87492489 296.86024909 378.92562427 333.68439914 355.25 364.25 C354.528125 365.23613281 353.80625 366.22226562 353.0625 367.23828125 C346.1400521 376.56309182 338.31322577 384.90704394 330.25 393.25 C328.97576172 394.58611328 328.97576172 394.58611328 327.67578125 395.94921875 C322.24231795 401.53875999 316.34431723 406.40084149 310.25 411.25 C309.05631452 412.2214568 307.86365442 413.19417454 306.671875 414.16796875 C239.40958385 468.93219904 152.15830585 496.00951417 64.5625 505.5625 C63.80516571 505.64390228 63.04783142 505.72530457 62.26754761 505.80917358 C57.26574859 506.33850099 52.26078191 506.81425008 47.25 507.25 C46.05971191 507.35530029 44.86942383 507.46060059 43.64306641 507.5690918 C31.09567963 508.51405164 18.52232541 508.43608269 5.94628906 508.43530273 C2.0500161 508.43747215 -1.84596499 508.45563587 -5.7421875 508.47460938 C-28.1573221 508.52556877 -50.45509567 507.3607394 -72.6875 504.4375 C-73.34177979 504.35252258 -73.99605957 504.26754517 -74.67016602 504.17999268 C-79.36801403 503.56738188 -84.05964088 502.9175263 -88.75 502.25 C-89.93609863 502.08161621 -91.12219727 501.91323242 -92.34423828 501.73974609 C-120.91348094 497.54937623 -149.73617307 490.68501538 -177.0234375 481.19677734 C-178.99392373 480.51254153 -180.96842277 479.83982497 -182.9453125 479.17431641 C-200.44155994 473.28328207 -217.15187217 466.32161241 -233.75 458.25 C-234.53826172 457.87101562 -235.32652344 457.49203125 -236.13867188 457.1015625 C-249.54455144 450.64732908 -263.19217265 443.8999223 -275.2109375 435.08203125 C-277.80155002 433.21280468 -280.44670878 431.45939779 -283.11938477 429.7109375 C-294.22235228 422.43451099 -304.52971572 414.59801671 -314.26953125 405.546875 C-316.39153855 403.58192966 -318.54908911 401.68751536 -320.75 399.8125 C-329.65518497 392.03639779 -337.42892915 383.51700604 -344.75 374.25 C-345.69746094 373.10337891 -345.69746094 373.10337891 -346.6640625 371.93359375 C-351.03245327 366.62141486 -355.07789109 361.10228945 -359.0625 355.5 C-359.57852783 354.7786084 -360.09455566 354.0572168 -360.6262207 353.31396484 C-363.37342695 349.41438428 -365.71896061 345.58173656 -367.75 341.25 C-368.35661335 340.06171879 -368.96756685 338.87564672 -369.58203125 337.69140625 C-390.6724213 296.57097759 -398.23669943 249.9792943 -384.3828125 205.04296875 C-375.07609161 176.81815732 -360.53037171 151.37648114 -340.75 129.25 C-340.29625 128.73985352 -339.8425 128.22970703 -339.375 127.70410156 C-330.38165253 117.6312969 -321.1268061 107.89718066 -310.53515625 99.48046875 C-307.71147994 97.21915153 -304.98757632 94.86444352 -302.25 92.5 C-258.48562171 55.96328887 -201.41536436 32.40943794 -146.75 18.25 C-146.11058472 18.08348938 -145.47116943 17.91697876 -144.81237793 17.74542236 C-112.3241486 9.30961172 -79.21867223 3.87188104 -45.75 1.25 C-44.56583496 1.1557373 -43.38166992 1.06147461 -42.16162109 0.96435547 C-28.12335826 -0.00842114 -14.06647646 0.00642877 0 0 Z " fill="#2F94FB" transform="translate(472.75,221.75)"/>
<path d="M0 0 C0.99 0.75990234 0.99 0.75990234 2 1.53515625 C3.0828125 2.27958984 3.0828125 2.27958984 4.1875 3.0390625 C10.57119059 7.90897352 13.85634477 14.46935008 15.609375 22.234375 C18.35259182 45.41455713 14.60248492 66.44666009 0.625 85.34765625 C-8.0060641 95.72059043 -18.17042495 106.05451499 -32 108.53515625 C-43.02417888 109.40074063 -53.25988645 108.91569658 -62 101.53515625 C-72.12891557 89.56225862 -75.03002182 74.57477114 -74.26953125 59.36767578 C-72.4842619 40.60617668 -65.44849911 23.77315712 -52 10.53515625 C-51.02740234 9.56449219 -51.02740234 9.56449219 -50.03515625 8.57421875 C-37.70265138 -2.97647088 -15.4605503 -9.91131707 0 0 Z " fill="#3094FB" transform="translate(637,436.46484375)"/>
<path d="M0 0 C-0.59634195 5.24071244 -1.41582141 10.30639715 -2.56640625 15.4609375 C-2.72077652 16.15607452 -2.87514679 16.85121155 -3.03419495 17.56741333 C-3.53971081 19.83750478 -4.05092415 22.10626717 -4.5625 24.375 C-4.92117953 25.97848916 -5.27973871 27.58200525 -5.63818359 29.18554688 C-8.21547512 40.67875807 -10.89869466 52.14571889 -13.62579346 63.60418701 C-16.31322236 74.90259288 -18.82153692 86.22904122 -21.18603516 97.59960938 C-21.41210449 98.68048828 -21.63817383 99.76136719 -21.87109375 100.875 C-22.06630615 101.82117188 -22.26151855 102.76734375 -22.46264648 103.7421875 C-23 106 -23 106 -24 108 C-24.04022391 110.3329866 -24.04320247 112.66706666 -24 115 C-23.52433594 114.68289063 -23.04867187 114.36578125 -22.55859375 114.0390625 C-21.85863281 113.57242188 -21.15867187 113.10578125 -20.4375 112.625 C-19.6125 112.07457031 -18.7875 111.52414062 -17.9375 110.95703125 C-15.83487281 109.5562118 -13.73074049 108.15783892 -11.625 106.76171875 C0.26649867 98.8693298 12.06100702 90.84124463 23.6875 82.5625 C24.25154541 82.16160156 24.81559082 81.76070313 25.39672852 81.34765625 C27.92323465 79.53880772 30.37193843 77.69311145 32.76953125 75.71484375 C35 74 35 74 37 74 C37.66 71.36 38.32 68.72 39 66 C33.39 65.01 27.78 64.02 22 63 C22.33 60.36 22.66 57.72 23 55 C43.46 55 63.92 55 85 55 C84.67 57.31 84.34 59.62 84 62 C83.00742187 62.268125 82.01484375 62.53625 80.9921875 62.8125 C63.93593779 67.63522867 50.5955599 77.17160152 36.31347656 87.35498047 C33.16351047 89.59479384 29.99236336 91.80291616 26.8125 94 C25.81476563 94.68964844 24.81703125 95.37929688 23.7890625 96.08984375 C19.8841823 98.76419448 15.95204953 101.39593635 12 104 C12.61972503 107.05784819 13.61565358 109.26142938 15.30078125 111.87890625 C16.01584839 112.99942383 16.01584839 112.99942383 16.74536133 114.14257812 C17.26251709 114.94115234 17.77967285 115.73972656 18.3125 116.5625 C19.4064096 118.2720333 20.50015484 119.98167178 21.59375 121.69140625 C22.43873047 123.0064917 22.43873047 123.0064917 23.30078125 124.34814453 C25.47677629 127.74407242 27.62941517 131.15439457 29.77929688 134.56689453 C31.28698547 136.9595099 32.79949022 139.34902839 34.3125 141.73828125 C35.91248824 144.26806767 37.49494823 146.80522827 39.0625 149.35546875 C44.7943556 158.63135114 50.35370497 166.92931518 61.33203125 169.90234375 C64.54597516 170.65795136 67.76179695 171.35722887 71 172 C70.67 174.97 70.34 177.94 70 181 C48.22 181 26.44 181 4 181 C4 175 4 175 5.10546875 173.19140625 C7.78164096 171.50845259 10.18509326 171.30903736 13.3125 170.9375 C17.7902382 170.39143437 21.75647265 169.54718622 26 168 C24.58565323 161.49400484 21.56821134 156.57248325 18 151 C17.29101562 149.88882813 16.58203125 148.77765625 15.8515625 147.6328125 C14.32034739 145.24051562 12.78165198 142.85322039 11.23828125 140.46875 C9.2193595 137.34757811 7.23254244 134.20692461 5.25 131.0625 C3.27686207 127.94411419 1.24699897 124.91135574 -0.9375 121.9375 C-3 119 -3 119 -3 117 C-8.74857065 119.71158993 -14.08756854 122.79211621 -19.3828125 126.3125 C-22 128 -22 128 -24.1171875 129 C-27.91509031 130.95600145 -28.85023822 132.56720219 -30.27734375 136.69140625 C-31.37464754 140.76102291 -32.21109883 144.86038954 -33 149 C-33.29390625 150.28003906 -33.29390625 150.28003906 -33.59375 151.5859375 C-34.10510702 154.62457822 -34.13208067 157.54490725 -34.125 160.625 C-34.12757813 161.75164062 -34.13015625 162.87828125 -34.1328125 164.0390625 C-34.13259517 167.05788082 -34.13259517 167.05788082 -33 170 C-27.6787385 171.08318169 -22.36513131 172.152874 -17 173 C-17 175.97 -17 178.94 -17 182 C-38.12 182 -59.24 182 -81 182 C-80 176 -80 176 -79 174 C-75.49170816 173.10410573 -71.98671987 172.36483606 -68.43359375 171.67578125 C-63.61175989 170.65145385 -60.75038062 169.36970289 -57 166 C-56.34 166 -55.68 166 -55 166 C-54.87882812 165.15179687 -54.75765625 164.30359375 -54.6328125 163.4296875 C-53.97466205 159.86267457 -52.97805568 156.58026712 -51.875 153.125 C-49.37044786 144.93264315 -47.53440637 136.62403466 -45.75 128.25 C-43.19820326 116.28040822 -40.43577868 104.38122887 -37.5 92.5 C-34.21516719 79.19738456 -31.13899628 65.86684601 -28.29492188 52.46289062 C-27.12176445 46.96389716 -25.90097939 41.54065779 -24.31640625 36.14453125 C-22.9921326 31.43060302 -22.63151466 27.18415553 -22.8125 22.3125 C-22.874375 19.899375 -22.93625 17.48625 -23 15 C-28.94 14.34 -34.88 13.68 -41 13 C-40.67 10.36 -40.34 7.72 -40 5 C-38.99098633 4.88406494 -37.98197266 4.76812988 -36.94238281 4.64868164 C-33.19239723 4.21710247 -29.44282184 3.78204582 -25.69335938 3.34594727 C-24.07172415 3.15782591 -22.44997978 2.97064284 -20.828125 2.78442383 C-18.49449684 2.51631398 -16.16128432 2.24481216 -13.828125 1.97265625 C-13.10506165 1.89032242 -12.38199829 1.80798859 -11.63702393 1.72315979 C-7.77438839 1.26895909 -3.85569823 0 0 0 Z " fill="#F8FAFC" transform="translate(286,374)"/>
<path d="M0 0 C-1.61455562 12.6546251 -4.52123026 25.05073307 -7.25 37.5 C-8.24942072 42.08680013 -9.24596901 46.67422219 -10.2421875 51.26171875 C-10.48486359 52.37773972 -10.72753967 53.49376068 -10.97756958 54.64360046 C-12.83270696 63.18891487 -14.62751375 71.74454737 -16.375 80.3125 C-18.74480704 91.91577116 -21.3154 103.46572299 -24 115 C-22.58018248 114.22996158 -21.16266411 113.45568323 -19.74609375 112.6796875 C-18.9564624 112.24897949 -18.16683105 111.81827148 -17.35327148 111.37451172 C-14.41816366 109.66015784 -11.7799377 107.68126383 -9.09765625 105.6015625 C-5.96220899 103.2076456 -2.70843983 100.99012247 0.53515625 98.74609375 C3.53936347 96.61791526 6.4335105 94.3652724 9.30859375 92.06640625 C11 91 11 91 14 91 C14 90.34 14 89.68 14 89 C15.8984375 87.4921875 15.8984375 87.4921875 18.375 85.875 C19.18710937 85.33617187 19.99921875 84.79734375 20.8359375 84.2421875 C23 83 23 83 25 83 C25 82.34 25 81.68 25 81 C27.69538681 79.18324522 30.49150633 77.58337213 33.30078125 75.94921875 C36.19902935 73.85627258 37.49992765 72.22029184 39 69 C39 68.01 39 67.02 39 66 C33.6787385 64.91681831 28.36513131 63.847126 23 63 C23.33 60.03 23.66 57.06 24 54 C44.13 54 64.26 54 85 54 C84.67 56.64 84.34 59.28 84 62 C83.27296875 62.14695312 82.5459375 62.29390625 81.796875 62.4453125 C68.40664609 65.43236356 57.97963472 72.05234431 47 80 C44.793318 81.58563976 42.58434377 83.1680716 40.375 84.75 C39.53557861 85.35158936 39.53557861 85.35158936 38.67919922 85.96533203 C33.40375546 89.73475699 28.08599954 93.44188578 22.75 97.125 C21.9151709 97.70604492 21.0803418 98.28708984 20.22021484 98.88574219 C19.4411377 99.42102539 18.66206055 99.95630859 17.859375 100.5078125 C17.16295898 100.98879395 16.46654297 101.46977539 15.74902344 101.96533203 C14 103 14 103 12 103 C13.52917512 107.40468921 15.8846377 111.05585177 18.5 114.875 C19.41157469 116.22387971 20.32302988 117.57284018 21.234375 118.921875 C21.69779297 119.60443359 22.16121094 120.28699219 22.63867188 120.99023438 C24.69329281 124.02352697 26.72145613 127.07423404 28.75 130.125 C31.71551715 134.57991674 34.68951125 139.02899556 37.671875 143.47265625 C38.30512695 144.41802246 38.93837891 145.36338867 39.59082031 146.33740234 C40.84351168 148.20746871 42.09800944 150.07632657 43.35449219 151.94384766 C43.92844727 152.80155762 44.50240234 153.65926758 45.09375 154.54296875 C45.86235352 155.6880188 45.86235352 155.6880188 46.64648438 156.85620117 C48 159 48 159 49.06494141 161.20825195 C50.30490329 163.58425203 51.55317131 163.99617284 54 165 C54.66257812 165.33 55.32515625 165.66 56.0078125 166 C61.61448174 168.6481685 66.88672647 169.96677067 73 171 C72.67 173.97 72.34 176.94 72 180 C50.22 180 28.44 180 6 180 C6.495 176.04 6.495 176.04 7 172 C7.94101562 171.87882813 8.88203125 171.75765625 9.8515625 171.6328125 C11.09679687 171.46523438 12.34203125 171.29765625 13.625 171.125 C14.85476563 170.96257812 16.08453125 170.80015625 17.3515625 170.6328125 C20.73961517 170.04516311 23.77698651 169.18011878 27 168 C27.68267831 162.07730437 25.52544075 158.85989913 22.375 154.125 C21.91714111 153.414646 21.45928223 152.70429199 20.98754883 151.97241211 C18.253975 147.76992261 15.37683308 143.72371383 12.2890625 139.7734375 C10.37727445 137.14328061 8.89886988 134.31626984 7.3671875 131.453125 C4.79462279 126.8372089 1.87454453 122.43193465 -1 118 C-6.13592206 118.45566827 -9.3994469 120.29101551 -13.4375 123.3125 C-16.90887527 125.85005214 -20.24632126 128.23640531 -24.1875 130 C-27.25255369 132.17959374 -27.46685014 132.54674075 -28.25 136 C-28.36601562 136.78890625 -28.48203125 137.5778125 -28.6015625 138.390625 C-29.0415318 141.27199256 -29.81769211 143.95034511 -30.625 146.75 C-32.17479343 152.98112822 -33.34114445 159.64721049 -32 166 C-28.47256181 169.84811438 -25.26947427 170.63400312 -20.1875 171.25 C-19.02605469 171.39953125 -17.86460937 171.5490625 -16.66796875 171.703125 C-15.78753906 171.80109375 -14.90710938 171.8990625 -14 172 C-14.875 179.875 -14.875 179.875 -16 181 C-17.90243762 181.09391296 -19.80838459 181.11743658 -21.71313477 181.11352539 C-22.9343251 181.11344986 -24.15551544 181.11337433 -25.41371155 181.11329651 C-26.75627686 181.10818911 -28.09884175 181.10297311 -29.44140625 181.09765625 C-30.80761158 181.09579199 -32.17381757 181.09436813 -33.5400238 181.09336853 C-37.14201695 181.08954394 -40.74397 181.07971417 -44.34594727 181.06866455 C-48.01903745 181.05844916 -51.69213409 181.05387064 -55.36523438 181.04882812 C-62.57684123 181.03809184 -69.788415 181.02101614 -77 181 C-77.125 175.25 -77.125 175.25 -76 173 C-73.59423559 172.40671655 -71.24901144 171.92032709 -68.8125 171.5 C-64.08474905 170.66053593 -59.47006806 169.8096348 -55 168 C-53.70957237 165.73398135 -53.70957237 165.73398135 -53 163 C-52.3047522 161.75331543 -52.3047522 161.75331543 -51.59545898 160.48144531 C-49.51384229 155.939157 -48.62780497 151.43067396 -47.66015625 146.546875 C-47.34781288 145.02552948 -47.34781288 145.02552948 -47.02915955 143.47344971 C-46.36564746 140.23386279 -45.71367004 136.99208797 -45.0625 133.75 C-44.20193793 129.51506948 -43.33715632 125.28100314 -42.47265625 121.046875 C-42.15816025 119.50114807 -42.15816025 119.50114807 -41.83731079 117.92419434 C-40.54440121 111.5890698 -39.21088624 105.26496277 -37.80859375 98.953125 C-37.65407242 98.25693054 -37.49955109 97.56073608 -37.34034729 96.84344482 C-36.59986603 93.54639784 -35.81965187 90.26299772 -34.98608398 86.98852539 C-34.00367711 83.09355747 -33.18639209 79.17188712 -32.4140625 75.23046875 C-32.27213974 74.51583466 -32.13021698 73.80120056 -31.98399353 73.06491089 C-31.52904185 70.77282234 -31.07675846 68.4802199 -30.625 66.1875 C-27.08504155 48.24464032 -27.08504155 48.24464032 -25.08056641 39.36572266 C-23.39009441 31.85021238 -22.44442581 24.73174086 -23 17 C-28.66221678 13.38247261 -34.40232633 13.30959957 -41 13 C-40.125 5.125 -40.125 5.125 -39 4 C-37.18199304 3.79534242 -35.35699213 3.65220202 -33.53125 3.53515625 C-32.40203125 3.45716797 -31.2728125 3.37917969 -30.109375 3.29882812 C-27.73449555 3.14333007 -25.35949728 2.98963455 -22.984375 2.83789062 C-17.13864965 2.43120272 -11.55965883 1.89768775 -5.88476562 0.40014648 C-4 0 -4 0 0 0 Z " fill="#F7F9FC" transform="translate(445,373)"/>
<path d="M0 0 C-0.72843167 7.48945266 -1.95727064 14.83764815 -3.28515625 22.2421875 C-3.50570175 23.48751251 -3.72624725 24.73283752 -3.95347595 26.01589966 C-4.65376775 29.96942144 -5.3576579 33.92228779 -6.0625 37.875 C-6.99404106 43.10100692 -7.9217083 48.32768595 -8.84765625 53.5546875 C-9.06325699 54.75777557 -9.27885773 55.96086365 -9.50099182 57.20040894 C-9.79646156 58.8682695 -9.79646156 58.8682695 -10.09790039 60.56982422 C-10.27253311 61.54861542 -10.44716583 62.52740662 -10.62709045 63.53585815 C-11.07481536 66.07900445 -11.07481536 66.07900445 -11 69 C-9.824375 68.01 -9.824375 68.01 -8.625 67 C-6 65 -6 65 -4 65 C-4 64.34 -4 63.68 -4 63 C8.91667966 53.42347646 22.05003111 49.06708715 38 49 C38.90621094 48.95359375 39.81242188 48.9071875 40.74609375 48.859375 C49.63163433 48.91773651 57.97350858 55.02541547 64.12109375 61.09375 C71.53685935 70.41431324 72.88491226 81.45842874 72 93 C70.99050629 101.54253992 69.49063861 110.01978215 68.0625 118.5 C67.68452754 120.79410312 67.30756664 123.08837315 66.93164062 125.3828125 C66.2432579 129.57332346 65.54970768 133.76288803 64.84790039 137.95117188 C64.62583168 139.27841026 64.62583168 139.27841026 64.39927673 140.63246155 C64.070801 142.58018068 63.73404548 144.52650165 63.39501953 146.47241211 C62.89262652 149.6870443 62.83019517 152.81012756 62.8125 156.0625 C62.79832031 157.24972656 62.78414062 158.43695312 62.76953125 159.66015625 C62.85456495 163.37734124 62.85456495 163.37734124 65 168 C70.28 168.66 75.56 169.32 81 170 C80.67 172.64 80.34 175.28 80 178 C60.32644064 178.66289617 40.68751623 179.17798172 21 179 C21 176.36 21 173.72 21 171 C22.03640625 170.73445312 23.0728125 170.46890625 24.140625 170.1953125 C25.51047756 169.83877553 26.88026588 169.4819917 28.25 169.125 C28.93191406 168.95097656 29.61382813 168.77695312 30.31640625 168.59765625 C36.47246532 167.21384768 36.47246532 167.21384768 41.19284058 163.40570068 C43.80144313 158.04468394 45.08773199 152.87849573 46.0703125 147.015625 C46.23747772 146.07877869 46.40464294 145.14193237 46.57687378 144.17669678 C47.10460189 141.20305015 47.61502005 138.22673603 48.125 135.25 C48.47413019 133.26802974 48.82438126 131.28625659 49.17578125 129.3046875 C49.9968304 124.65878049 50.79889247 120.00987947 51.59307861 115.35931396 C51.9432363 113.32911365 52.30697889 111.30126477 52.67333984 109.27392578 C54.73515162 97.69492375 57.05866627 82.26902178 50 72 C44.04857317 65.44100291 38.13196998 63.45017281 29.4375 62.6875 C14.77194355 62.91225949 2.46677231 71.65361458 -8 81 C-8.59514404 81.45995361 -9.19028809 81.91990723 -9.8034668 82.39379883 C-15.9349315 87.5898334 -16.55884759 93.22971867 -17.5625 100.9375 C-17.85007158 102.86636386 -18.13775971 104.79521558 -18.43083191 106.72325134 C-18.63469039 108.06866812 -18.83517408 109.41460021 -19.03242493 110.76100159 C-19.76348229 115.69179523 -20.65821169 120.57443209 -21.640625 125.4609375 C-21.77979843 126.16064163 -21.91897186 126.86034576 -22.06236267 127.58125305 C-22.73425155 130.95256595 -23.41853963 134.32022915 -24.12133789 137.68530273 C-25.43410664 144.35886785 -26.3070905 150.90599655 -26.48046875 157.69921875 C-26.51422607 159.00076904 -26.5479834 160.30231934 -26.58276367 161.64331055 C-26.30096423 165.14584469 -26.30096423 165.14584469 -23.65087891 167.40454102 C-20.74644569 169.15260429 -18.52961561 169.76680256 -15.1875 170.25 C-13.72376953 170.47429687 -13.72376953 170.47429687 -12.23046875 170.703125 C-11.12638672 170.85007812 -11.12638672 170.85007812 -10 171 C-10.495 174.96 -10.495 174.96 -11 179 C-17.97796168 179.91623395 -24.78342939 180.13231811 -31.81640625 180.09765625 C-33.46200783 180.09553383 -33.46200783 180.09553383 -35.14085388 180.09336853 C-38.61476469 180.08781012 -42.08860896 180.07526546 -45.5625 180.0625 C-47.93033761 180.05747962 -50.29817623 180.05291766 -52.66601562 180.04882812 C-58.44403278 180.03785435 -64.22201164 180.02115811 -70 180 C-69.505 176.04 -69.505 176.04 -69 172 C-67.91460938 171.86464844 -66.82921875 171.72929688 -65.7109375 171.58984375 C-56.62976474 170.62165388 -56.62976474 170.62165388 -49.1875 165.9375 C-44.53219748 158.32819029 -43.31230655 149.08682662 -41.84375 140.4296875 C-41.65534546 139.34978546 -41.46694092 138.26988342 -41.27282715 137.15725708 C-40.67616925 133.73080047 -40.08777976 130.30298959 -39.5 126.875 C-38.7206461 122.37206635 -37.93829582 117.86965429 -37.15625 113.3671875 C-36.87144524 111.72290016 -36.87144524 111.72290016 -36.58088684 110.0453949 C-35.38579412 103.1607317 -34.13850064 96.28988032 -32.83544922 89.42480469 C-31.00783844 79.78288885 -29.25180111 70.12757928 -27.5012207 60.47143555 C-27.04032378 57.93919823 -26.57577721 55.4076226 -26.10766602 52.87670898 C-25.42326932 49.17332261 -24.75144273 45.46783937 -24.08203125 41.76171875 C-23.87270462 40.64375412 -23.66337799 39.52578949 -23.44770813 38.37394714 C-22.25597827 31.68930547 -21.08296209 24.78959951 -22 18 C-25.44260474 14.09217841 -28.90580844 13.75012509 -33.875 13.25 C-35.58242887 13.14983084 -37.29071737 13.06082856 -39 13 C-39.09765625 6.84765625 -39.09765625 6.84765625 -39 5 C-37.26760738 3.26760738 -34.86187294 3.68588865 -32.49609375 3.53515625 C-31.36236328 3.45716797 -30.22863281 3.37917969 -29.06054688 3.29882812 C-26.67266298 3.14306858 -24.2846434 2.98937341 -21.89648438 2.83789062 C-14.56900855 2.32955474 -7.21418876 0 0 0 Z " fill="#F8F9FC" transform="translate(748,371)"/>
<path d="M0 0 C8.4414758 6.95782248 13.95427312 16.36300258 16.265625 27.0625 C16.56973311 31.0659765 16.59888563 35.04877811 16.578125 39.0625 C16.57075317 40.7326416 16.57075317 40.7326416 16.56323242 42.43652344 C16.31790398 59.75293741 11.8796034 74.69331578 2.81640625 89.50390625 C1.27316003 91.96239179 1.27316003 91.96239179 0.1953125 94.2578125 C-1.24893527 97.06135229 -3.46214177 98.89125491 -5.734375 101.0625 C-6.19328125 101.57683594 -6.6521875 102.09117187 -7.125 102.62109375 C-18.86147393 115.45415742 -36.73283882 123.72261174 -54.03125 124.53125 C-56.18205516 124.56480493 -58.33334294 124.57474007 -60.484375 124.5625 C-61.61456055 124.55895508 -62.74474609 124.55541016 -63.90917969 124.55175781 C-75.58033681 124.32173501 -86.21553765 122.27374042 -95.734375 115.0625 C-95.734375 114.4025 -95.734375 113.7425 -95.734375 113.0625 C-96.3221875 112.815 -96.91 112.5675 -97.515625 112.3125 C-104.63168483 108.30345221 -108.48182412 99.57812 -110.734375 92.0625 C-116.70776451 69.90315182 -110.98646167 46.5972713 -99.97265625 26.9140625 C-98.33992545 24.50112234 -96.6190871 22.28290117 -94.734375 20.0625 C-94.09242188 19.26199219 -93.45046875 18.46148437 -92.7890625 17.63671875 C-84.05309564 7.27283186 -73.46947158 -1.15407348 -60.734375 -5.9375 C-59.48720703 -6.45763672 -59.48720703 -6.45763672 -58.21484375 -6.98828125 C-39.76764876 -14.04760154 -15.92410648 -11.28336688 0 0 Z M-75.60546875 19.47265625 C-83.52794316 29.1104554 -87.69069997 40.08559446 -90.734375 52.0625 C-90.91983887 52.77422363 -91.10530273 53.48594727 -91.29638672 54.21923828 C-95.00115707 69.41838087 -93.56646346 84.89043349 -85.796875 98.5625 C-81.51922945 105.17146237 -76.31284914 110.60055505 -68.46875 112.65625 C-55.21245463 114.62575674 -44.74606172 112.67056618 -33.63671875 105.26953125 C-24.48373328 98.30932023 -17.3170775 90.13237468 -11.734375 80.0625 C-11.27546875 79.31097656 -10.8165625 78.55945313 -10.34375 77.78515625 C-2.03946451 63.15260501 0.22559702 41.9955277 -3.625 25.73046875 C-6.51666111 16.16965966 -10.75097362 8.96912269 -19.63891602 3.99707031 C-25.54372643 1.06000312 -30.62972661 0.42459536 -37.171875 0.5625 C-38.09983887 0.57603516 -39.02780273 0.58957031 -39.98388672 0.60351562 C-54.72984686 1.0505992 -65.57080038 8.97125912 -75.60546875 19.47265625 Z " fill="#F8FAFC" transform="translate(655.734375,431.9375)"/>
<path d="M0 0 C23.76 0 47.52 0 72 0 C71.67 2.64 71.34 5.28 71 8 C69.2984375 8.27263672 69.2984375 8.27263672 67.5625 8.55078125 C66.04159623 8.80426521 64.52076678 9.05819541 63 9.3125 C62.25621094 9.43044922 61.51242188 9.54839844 60.74609375 9.66992188 C58.48051001 10.05408607 56.24355593 10.50345117 54 11 C53.29488281 11.15130371 52.58976562 11.30260742 51.86328125 11.45849609 C46.50061925 12.98685476 44.04286957 15.73442102 41.21533203 20.47119141 C39.23552385 24.59068782 38.28720284 28.71591347 37.4375 33.1875 C37.03168268 35.13029876 36.62541956 37.07300445 36.21875 39.015625 C36.01894531 40.00369141 35.81914062 40.99175781 35.61328125 42.00976562 C34.62372437 46.83464329 33.53204704 51.6355353 32.4375 56.4375 C32.12196167 57.83186279 32.12196167 57.83186279 31.80004883 59.25439453 C30.39635334 65.41045287 28.82441202 71.50270865 27.16015625 77.59375 C22.91631331 93.44563842 19.27725735 109.48440308 15.71435547 125.50146484 C14.6525208 130.24896244 13.49747445 134.95322154 12.23144531 139.65014648 C10.45982674 146.28576454 8.66548061 153.1230172 10 160 C12.50812823 164.08570453 15.4711685 165.70932121 20 167 C24.31650533 167.81091874 28.6439597 168.44321289 33 169 C32.47731534 171.76276177 31.89130413 174.3260876 31 177 C27.51893486 178.16035505 24.8152767 178.12002704 21.1418457 178.11352539 C20.44890411 178.11367142 19.75596252 178.11381744 19.04202271 178.1139679 C16.75324363 178.11327163 14.4645461 178.1054926 12.17578125 178.09765625 C10.58823186 178.09579106 9.00068189 178.09436763 7.41313171 178.09336853 C3.2357728 178.08955134 -0.94155131 178.07972786 -5.11889648 178.06866455 C-9.38199391 178.05843328 -13.64509696 178.05386723 -17.90820312 178.04882812 C-26.27215138 178.03810489 -34.63607136 178.02103803 -43 178 C-42.505 174.04 -42.505 174.04 -42 170 C-38.06121185 168.46824905 -34.28569825 167.71487114 -30.125 167.125 C-22.58221095 165.90992865 -17.05003429 163.98213662 -12.14868164 157.86914062 C-9.93168806 154.26163737 -9.27142148 150.23138594 -8.4375 146.125 C-8.06272165 144.39810611 -7.68636899 142.67155327 -7.30859375 140.9453125 C-7.1067749 140.00896973 -6.90495605 139.07262695 -6.69702148 138.10791016 C-5.43582082 132.48441298 -4.00107201 126.90338489 -2.58639526 121.31695557 C-0.80574328 114.28127198 0.95944402 107.24166788 2.72680664 100.20263672 C3.19795638 98.32807254 3.66995203 96.45372076 4.14282227 94.57958984 C7.62805009 80.76215659 10.89543519 66.9077672 14 53 C14.72242194 49.78119731 15.4451234 46.56245762 16.16796875 43.34375 C16.57342947 41.53686463 16.97692597 39.72953785 17.37890625 37.921875 C17.57871094 37.035 17.77851563 36.148125 17.984375 35.234375 C18.15678711 34.46319336 18.32919922 33.69201172 18.50683594 32.89746094 C19 31 19 31 20 29 C20.22622231 26.71486829 20.35877503 24.41995225 20.4375 22.125 C20.52837891 20.27261719 20.52837891 20.27261719 20.62109375 18.3828125 C20.31780349 14.82333204 20.31780349 14.82333204 17.46484375 12.6640625 C13.65350033 10.83358641 10.26609331 9.93215684 6.125 9.25 C5.43664062 9.12496094 4.74828125 8.99992187 4.0390625 8.87109375 C2.36158618 8.56821608 0.68105912 8.28231527 -1 8 C-0.67 5.36 -0.34 2.72 0 0 Z " fill="#F8F9FC" transform="translate(158,379)"/>
<path d="M0 0 C0.66 0.33 1.32 0.66 2 1 C-0.62451617 3.62451617 -2.4877828 3.5832868 -6.125 4.125 C-7.22070312 4.29257812 -8.31640625 4.46015625 -9.4453125 4.6328125 C-10.70988281 4.81457031 -10.70988281 4.81457031 -12 5 C-12.33 6.98 -12.66 8.96 -13 11 C7.13 11 27.26 11 48 11 C48 11.33 48 11.66 48 12 C26.22 12 4.44 12 -18 12 C-18 6 -18 6 -16.91015625 4.1953125 C-14.16641427 2.47836967 -11.63440327 2.26791549 -8.4375 1.875 C-4.07033833 1.43124554 -4.07033833 1.43124554 0 0 Z " fill="#C9D9FC" transform="translate(308,543)"/>
<path d="M0 0 C-0.33 0.66 -0.66 1.32 -1 2 C-3.94140625 2.4140625 -3.94140625 2.4140625 -7.5625 2.625 C-8.76003906 2.69976562 -9.95757812 2.77453125 -11.19140625 2.8515625 C-12.11824219 2.90054688 -13.04507812 2.94953125 -14 3 C-14 4.32 -14 5.64 -14 7 C-19.28 7 -24.56 7 -30 7 C-30 6.34 -30 5.68 -30 5 C-32.64 5 -35.28 5 -38 5 C-38 4.67 -38 4.34 -38 4 C-33.55317527 3.42552616 -29.10574921 2.85602842 -24.65771484 2.29101562 C-23.14647474 2.09835271 -21.63540337 1.90436112 -20.12451172 1.70898438 C-17.94542384 1.42744105 -15.76576207 1.15077432 -13.5859375 0.875 C-12.2767334 0.70742187 -10.9675293 0.53984375 -9.61865234 0.3671875 C-6.37786239 0.03834199 -3.25365038 -0.07044439 0 0 Z " fill="#3E98F7" transform="translate(422,224)"/>
<path d="M0 0 C0.66 0.33 1.32 0.66 2 1 C1.01 4.3 0.02 7.6 -1 11 C-1.66 11 -2.32 11 -3 11 C-2.67 8.69 -2.34 6.38 -2 4 C-16.19 4 -30.38 4 -45 4 C-45 3.67 -45 3.34 -45 3 C-39.32504784 2.18647759 -33.85307186 1.86385066 -28.125 1.90234375 C-27.31506592 1.9037587 -26.50513184 1.90517365 -25.6706543 1.90663147 C-23.11373006 1.91217617 -20.55689724 1.92471793 -18 1.9375 C-16.25390753 1.94252216 -14.50781366 1.94708381 -12.76171875 1.95117188 C-8.50777791 1.9621274 -4.25390439 1.97935306 0 2 C0 1.34 0 0.68 0 0 Z " fill="#5C9FF7" transform="translate(373,425)"/>
<path d="M0 0 C0 3 0 3 -1 6 C-2.423125 6.0928125 -2.423125 6.0928125 -3.875 6.1875 C-4.90625 6.455625 -5.9375 6.72375 -7 7 C-8.32481546 9.39529669 -8.32481546 9.39529669 -9 12 C-11.39119721 14.39119721 -12.69644917 14.59712795 -16 15 C-16.99 14.67 -17.98 14.34 -19 14 C-18.690625 15.0725 -18.38125 16.145 -18.0625 17.25 C-17.33187904 19.82866222 -16.62517096 22.39512102 -16 25 C-18.33524782 22.74259377 -20.18705073 20.7194239 -22 18 C-22.00390625 16.08984375 -22.00390625 16.08984375 -21 14 C-19.00078404 12.3589402 -17.09434814 10.96032945 -14.9375 9.5625 C-14.35202393 9.17070557 -13.76654785 8.77891113 -13.16333008 8.37524414 C-8.83262876 5.49268258 -4.44544578 2.70213371 0 0 Z " fill="#4897F6" transform="translate(319,463)"/>
<path d="M0 0 C23.76 0 47.52 0 72 0 C71.67 2.64 71.34 5.28 71 8 C69.35 8 67.7 8 66 8 C67.32 7.67 68.64 7.34 70 7 C70 6.01 70 5.02 70 4 C69.01 3.505 69.01 3.505 68 3 C68.66 2.67 69.32 2.34 70 2 C46.9 1.67 23.8 1.34 0 1 C0 0.67 0 0.34 0 0 Z " fill="#D8E3FE" transform="translate(158,379)"/>
<path d="M0 0 C11.55 0 23.1 0 35 0 C35 0.33 35 0.66 35 1 C23.78 1 12.56 1 1 1 C0.67 3.64 0.34 6.28 0 9 C1.58941406 9.18175781 1.58941406 9.18175781 3.2109375 9.3671875 C4.59901324 9.53600752 5.98703119 9.70530308 7.375 9.875 C8.42300781 9.99294922 8.42300781 9.99294922 9.4921875 10.11328125 C14.7734375 10.7734375 14.7734375 10.7734375 17 13 C15.06280622 13.05406122 13.12518079 13.09282025 11.1875 13.125 C10.10855469 13.14820313 9.02960938 13.17140625 7.91796875 13.1953125 C5 13 5 13 2 11 C1.01 10.67 0.02 10.34 -1 10 C-1.125 3.375 -1.125 3.375 0 0 Z " fill="#478FF5" transform="translate(157,378)"/>
<path d="M0 0 C2.01822917 0.06510417 4.03645833 0.13020833 6.0546875 0.1953125 C6.0546875 1.8453125 6.0546875 3.4953125 6.0546875 5.1953125 C10.3446875 5.1953125 14.6346875 5.1953125 19.0546875 5.1953125 C19.0546875 5.8553125 19.0546875 6.5153125 19.0546875 7.1953125 C8.64670091 6.62706036 -1.61807005 5.59308645 -11.9453125 4.1953125 C-11.9453125 3.8653125 -11.9453125 3.5353125 -11.9453125 3.1953125 C-10.6665625 3.0715625 -9.3878125 2.9478125 -8.0703125 2.8203125 C-4.56915336 2.48149065 -3.1324247 0.31450047 0 0 Z " fill="#4298F6" transform="translate(401.9453125,720.8046875)"/>
<path d="M0 0 C0.33 0 0.66 0 1 0 C1 2.97 1 5.94 1 9 C1.99 8.67 2.98 8.34 4 8 C3.34 13.28 2.68 18.56 2 24 C1.01 23.34 0.02 22.68 -1 22 C-1.2513805 19.33057851 -1.3263317 16.91206816 -1.25 14.25 C-1.24484375 13.54617188 -1.2396875 12.84234375 -1.234375 12.1171875 C-1.17295779 7.98687993 -0.79284191 4.06651171 0 0 Z " fill="#3893F7" transform="translate(722,514)"/>
<path d="M0 0 C0.66 0.66 1.32 1.32 2 2 C-0.3107221 10.35010941 -0.3107221 10.35010941 -3.1875 13.0625 C-3.785625 13.371875 -4.38375 13.68125 -5 14 C-5.33 13.34 -5.66 12.68 -6 12 C-6.33 12.66 -6.66 13.32 -7 14 C-7.66 13.67 -8.32 13.34 -9 13 C-7.68889201 11.01989841 -6.37618664 9.04088963 -5.0625 7.0625 C-4.50272461 6.21655273 -4.50272461 6.21655273 -3.93164062 5.35351562 C-1.11328125 1.11328125 -1.11328125 1.11328125 0 0 Z " fill="#3B97F7" transform="translate(116,372)"/>
<path d="M0 0 C3.33280708 2.22187139 4.28608357 3.84300187 6.1875 7.3125 C6.71730469 8.25738281 7.24710937 9.20226562 7.79296875 10.17578125 C9.02627278 13.06147319 9.25376095 14.90411636 9 18 C7.35 18.66 5.7 19.32 4 20 C4.33 19.01 4.66 18.02 5 17 C5.66 17 6.32 17 7 17 C6.67 15.68 6.34 14.36 6 13 C5.34 13 4.68 13 4 13 C2.42445965 10.11371599 1.53723627 7.46657616 0.875 4.25 C0.70742188 3.45078125 0.53984375 2.6515625 0.3671875 1.828125 C0.24601562 1.22484375 0.12484375 0.6215625 0 0 Z M2 13 C2.66 13 3.32 13 4 13 C4 13.66 4 14.32 4 15 C3.01 15.33 2.02 15.66 1 16 C1.33 15.01 1.66 14.02 2 13 Z " fill="#539DF4" transform="translate(303,524)"/>
<path d="M0 0 C0.33 0 0.66 0 1 0 C1 2.31 1 4.62 1 7 C2.98 7 4.96 7 7 7 C7 7.99 7 8.98 7 10 C1.85714286 14 1.85714286 14 -2 14 C-1.34 9.38 -0.68 4.76 0 0 Z " fill="#4894F8" transform="translate(423,474)"/>
<path d="M0 0 C4 5.25714286 4 5.25714286 4 8 C2.68 8 1.36 8 0 8 C-0.33 6.35 -0.66 4.7 -1 3 C-1.33 3.66 -1.66 4.32 -2 5 C-3.65 5 -5.3 5 -7 5 C-7.33 5.66 -7.66 6.32 -8 7 C-9.32 6.67 -10.64 6.34 -12 6 C-10.56839732 4.99157547 -9.12948547 3.99352109 -7.6875 3 C-6.88699219 2.443125 -6.08648437 1.88625 -5.26171875 1.3125 C-3 0 -3 0 0 0 Z " fill="#5099F6" transform="translate(283,491)"/>
<path d="M0 0 C1.03115279 3.26913624 0.9638984 5.86041348 0.5625 9.25 C0.46066406 10.14203125 0.35882812 11.0340625 0.25390625 11.953125 C0.17011719 12.62859375 0.08632813 13.3040625 0 14 C-1.65 14.33 -3.3 14.66 -5 15 C-3.97137215 9.55432314 -2.75385216 4.88182883 0 0 Z " fill="#4998F9" transform="translate(572,464)"/>
<path d="M0 0 C0.33 0 0.66 0 1 0 C1.16898112 5.35810969 0.56511422 10.19349172 -0.5 15.4375 C-0.71462891 16.53481445 -0.71462891 16.53481445 -0.93359375 17.65429688 C-1.28321296 19.43735486 -1.64077688 21.21885203 -2 23 C-2.33 23 -2.66 23 -3 23 C-3 19.7 -3 16.4 -3 13 C-3.33 13 -3.66 13 -4 13 C-4 11.02 -4 9.04 -4 7 C-3.34 7 -2.68 7 -2 7 C-2 5.68 -2 4.36 -2 3 C-1.34 3 -0.68 3 0 3 C0 2.01 0 1.02 0 0 Z " fill="#3E94F7" transform="translate(724,405)"/>
<path d="M0 0 C-0.75 1.9375 -0.75 1.9375 -2 4 C-5.31678668 5.30302334 -7.83137242 4.82719301 -11.25 4.0625 C-12.14203125 3.86785156 -13.0340625 3.67320312 -13.953125 3.47265625 C-14.62859375 3.31667969 -15.3040625 3.16070312 -16 3 C-10.85913339 -0.42724441 -5.99202204 -0.1015597 0 0 Z " fill="#3C98FA" transform="translate(368,232)"/>
<path d="M0 0 C1 3 1 3 -1 8 C-10.57 8 -20.14 8 -30 8 C-30 7.67 -30 7.34 -30 7 C-20.76 7 -11.52 7 -2 7 C-2.33 5.02 -2.66 3.04 -3 1 C-2.01 0.67 -1.02 0.34 0 0 Z " fill="#F6E9FE" transform="translate(190,548)"/>
<path d="M0 0 C1.98 0 3.96 0 6 0 C6 1.32 6 2.64 6 4 C7.65 4 9.3 4 11 4 C7.70107334 5.88054756 4.60607094 6.60829247 0.875 7.25 C-0.17945313 7.44078125 -1.23390625 7.6315625 -2.3203125 7.828125 C-3.64675781 7.91320312 -3.64675781 7.91320312 -5 8 C-5.66 7.34 -6.32 6.68 -7 6 C-4.36 5.67 -1.72 5.34 1 5 C0.67 4.34 0.34 3.68 0 3 C1.32 3 2.64 3 4 3 C4 2.34 4 1.68 4 1 C2.68 0.67 1.36 0.34 0 0 Z " fill="#3C93F7" transform="translate(434,368)"/>
<path d="M0 0 C2 1.375 2 1.375 4 3 C4 3.66 4 4.32 4 5 C6.97 5.495 6.97 5.495 10 6 C9.67 8.31 9.34 10.62 9 13 C5.08060535 9.19588166 1.50897269 5.18423892 -2 1 C-1.34 0.67 -0.68 0.34 0 0 Z " fill="#3C96F7" transform="translate(132,597)"/>
<path d="M0 0 C2.64 0.33 5.28 0.66 8 1 C8 4.63 8 8.26 8 12 C4.02502456 8.59287819 2.13206212 4.67239145 0 0 Z " fill="#3C95F7" transform="translate(469,496)"/>
<path d="M0 0 C0.99 0.33 1.98 0.66 3 1 C3 1.99 3 2.98 3 4 C3.66 4 4.32 4 5 4 C4.8125 5.875 4.8125 5.875 4 8 C1.4375 9.25 1.4375 9.25 -1 10 C-1.125 2.25 -1.125 2.25 0 0 Z " fill="#4B90F7" transform="translate(262,480)"/>
<path d="M0 0 C0.66 0.33 1.32 0.66 2 1 C-1.53186832 3.15059309 -4.66287993 3.3797728 -8.75 3.625 C-9.92046875 3.69976563 -11.0909375 3.77453125 -12.296875 3.8515625 C-13.18890625 3.90054688 -14.0809375 3.94953125 -15 4 C-15.33 6.64 -15.66 9.28 -16 12 C-16.33 12 -16.66 12 -17 12 C-17.02689216 10.52093108 -17.04634621 9.04172517 -17.0625 7.5625 C-17.07410156 6.73878906 -17.08570313 5.91507813 -17.09765625 5.06640625 C-17 3 -17 3 -16 2 C-13.87887958 1.78964095 -11.75246581 1.63149899 -9.625 1.5 C-6.14907092 1.28419953 -3.3073524 1.1024508 0 0 Z " fill="#78ACF6" transform="translate(694,539)"/>
<path d="M0 0 C6.27 0 12.54 0 19 0 C16 3 16 3 12.20703125 3.07421875 C10.74085796 2.96143619 9.27589543 2.83192243 7.8125 2.6875 C7.06291016 2.62626953 6.31332031 2.56503906 5.54101562 2.50195312 C3.69277255 2.34891389 1.8461665 2.17633121 0 2 C0 1.34 0 0.68 0 0 Z " fill="#4C99FA" transform="translate(589,556)"/>
<path d="M0 0 C0.33 0 0.66 0 1 0 C1 6.6 1 13.2 1 20 C-0.98 20.99 -0.98 20.99 -3 22 C-2.24984418 14.62346781 -1.16558465 7.32168224 0 0 Z " fill="#5787F7" transform="translate(739,419)"/>
<path d="M0 0 C4.62 1.65 9.24 3.3 14 5 C9.8204355 7.78637633 7.85331323 6.79562512 3 6 C3 4.68 3 3.36 3 2 C2.01 2 1.02 2 0 2 C0 1.34 0 0.68 0 0 Z " fill="#3F96F6" transform="translate(671,256)"/>
<path d="M0 0 C0.66 0.33 1.32 0.66 2 1 C1.54625 1.556875 1.0925 2.11375 0.625 2.6875 C-1.11050352 4.94954292 -1.11050352 4.94954292 -2 7.6875 C-2.33 8.450625 -2.66 9.21375 -3 10 C-3.99 10.33 -4.98 10.66 -6 11 C-5.63076923 4.6 -5.63076923 4.6 -2.4375 1.5625 C-1.633125 1.046875 -0.82875 0.53125 0 0 Z " fill="#519FF6" transform="translate(422,501)"/>
<path d="M0 0 C0 1.65 0 3.3 0 5 C-0.61875 5.061875 -1.2375 5.12375 -1.875 5.1875 C-2.57625 5.455625 -3.2775 5.72375 -4 6 C-4.309375 6.825 -4.61875 7.65 -4.9375 8.5 C-5.4634375 9.7375 -5.4634375 9.7375 -6 11 C-8.625 11.8125 -8.625 11.8125 -11 12 C-2.26213592 0 -2.26213592 0 0 0 Z " fill="#4598F5" transform="translate(141,342)"/>
<path d="M0 0 C0.33 0 0.66 0 1 0 C0.48517081 5.852795 -0.45357192 11.3297637 -2 17 C-2.33 17 -2.66 17 -3 17 C-3.027193 15.41676312 -3.04648306 13.83338938 -3.0625 12.25 C-3.07410156 11.36828125 -3.08570313 10.4865625 -3.09765625 9.578125 C-3.00826198 7.2181162 -2.66912821 5.25501476 -2 3 C-1.34 3 -0.68 3 0 3 C0 2.01 0 1.02 0 0 Z " fill="#4396F6" transform="translate(862,506)"/>
<path d="M0 0 C1.32 0 2.64 0 4 0 C4 2.64 4 5.28 4 8 C3.34 7.01 2.68 6.02 2 5 C1.87625 5.969375 1.7525 6.93875 1.625 7.9375 C1.41875 8.948125 1.2125 9.95875 1 11 C0.01 11.495 0.01 11.495 -1 12 C-0.67 8.04 -0.34 4.08 0 0 Z " fill="#4899F6" transform="translate(819,464)"/>
<path d="M0 0 C0.33 0.66 0.66 1.32 1 2 C0.0625 4.625 0.0625 4.625 -1 7 C-1.66 7 -2.32 7 -3 7 C-3.12117187 7.77085937 -3.24234375 8.54171875 -3.3671875 9.3359375 C-3.53476563 10.33882813 -3.70234375 11.34171875 -3.875 12.375 C-4.03742188 13.37273437 -4.19984375 14.37046875 -4.3671875 15.3984375 C-5 18 -5 18 -7 20 C-6.66164583 13.00734712 -5.19463334 5.19463334 0 0 Z " fill="#619BF5" transform="translate(202,394)"/>
<path d="M0 0 C0.33 0.66 0.66 1.32 1 2 C3.49540284 2.42424794 5.92411254 2.74935748 8.4375 3 C15.73142415 3.73142415 15.73142415 3.73142415 18 6 C16.06280622 6.05406122 14.12518079 6.09282025 12.1875 6.125 C11.10855469 6.14820313 10.02960938 6.17140625 8.91796875 6.1953125 C6 6 6 6 3 4 C2.01 3.67 1.02 3.34 0 3 C0 2.01 0 1.02 0 0 Z " fill="#599EF7" transform="translate(156,385)"/>
<path d="M0 0 C0.33 0 0.66 0 1 0 C1 2.64 1 5.28 1 8 C1.99 8 2.98 8 4 8 C3.67 9.98 3.34 11.96 3 14 C2.67 13.01 2.34 12.02 2 11 C1.34 11 0.68 11 0 11 C-0.33 11.66 -0.66 12.32 -1 13 C-1.07654536 8.48382401 -1.10228696 4.40914783 0 0 Z " fill="#3D95F8" transform="translate(427,456)"/>
<path d="M0 0 C1.07765625 0.03609375 2.1553125 0.0721875 3.265625 0.109375 C4.49539062 0.17898438 4.49539062 0.17898438 5.75 0.25 C3.1219961 1.59333235 0.49037974 2.84027764 -2.25 3.9375 C-2.91 4.20949219 -3.57 4.48148437 -4.25 4.76171875 C-6.59543601 5.33433496 -7.98437404 5.00352292 -10.25 4.25 C-7.0246569 0.27312065 -5.05259733 -0.21967814 0 0 Z " fill="#EDF0FC" transform="translate(210.25,387.75)"/>
<path d="M0 0 C1.32 0.33 2.64 0.66 4 1 C3.91306859 2.79258558 3.80489496 4.58415144 3.6875 6.375 C3.62949219 7.37273437 3.57148438 8.37046875 3.51171875 9.3984375 C3.34285156 10.25695312 3.17398437 11.11546875 3 12 C2.01 12.66 1.02 13.32 0 14 C0.66 10.7 1.32 7.4 2 4 C0.02 4.33 -1.96 4.66 -4 5 C-3.01 4.34 -2.02 3.68 -1 3 C-0.67 2.01 -0.34 1.02 0 0 Z " fill="#4C98F2" transform="translate(284,370)"/>
<path d="M0 0 C2.75 0.25 2.75 0.25 5 1 C0.375 5.875 0.375 5.875 -3 7 C-3.33 6.01 -3.66 5.02 -4 4 C-2.3125 1.9375 -2.3125 1.9375 0 0 Z " fill="#3C96F8" transform="translate(575,433)"/>
<path d="M0 0 C4.455 0.99 4.455 0.99 9 2 C9.33 3.32 9.66 4.64 10 6 C4.06 4.515 4.06 4.515 -2 3 C-1.34 2.01 -0.68 1.02 0 0 Z " fill="#4298F7" transform="translate(314,705)"/>
<path d="M0 0 C0.33 0 0.66 0 1 0 C1 2.97 1 5.94 1 9 C1.99 8.67 2.98 8.34 4 8 C3.42655063 10.86724686 3.1385485 11.8614515 1 14 C0.34 14 -0.32 14 -1 14 C-1.08333357 9.1666528 -0.95261487 4.76307437 0 0 Z " fill="#5199F9" transform="translate(722,514)"/>
<path d="M0 0 C0.99 0.66 1.98 1.32 3 2 C2.04663979 3.31611677 1.08714226 4.62778961 0.125 5.9375 C-0.40867187 6.66839844 -0.94234375 7.39929688 -1.4921875 8.15234375 C-3 10 -3 10 -5 11 C-5 9.68 -5 8.36 -5 7 C-4.01 7 -3.02 7 -2 7 C-2.061875 5.824375 -2.061875 5.824375 -2.125 4.625 C-2 2 -2 2 0 0 Z " fill="#3F92F6" transform="translate(637,516)"/>
<path d="M0 0 C1.60379341 -0.05416188 3.20811406 -0.09286638 4.8125 -0.125 C5.70582031 -0.14820313 6.59914063 -0.17140625 7.51953125 -0.1953125 C10 0 10 0 13 2 C12.625 4.9375 12.625 4.9375 12 8 C11.01 8.495 11.01 8.495 10 9 C9.34 8.67 8.68 8.34 8 8 C8.33 7.34 8.66 6.68 9 6 C9.66 6.33 10.32 6.66 11 7 C10.34 5.02 9.68 3.04 9 1 C6.03 1 3.06 1 0 1 C0 0.67 0 0.34 0 0 Z " fill="#4091F2" transform="translate(312,438)"/>
<path d="M0 0 C0.66 0.66 1.32 1.32 2 2 C2.66 1.67 3.32 1.34 4 1 C4 2.32 4 3.64 4 5 C3.34 5 2.68 5 2 5 C2.33 6.65 2.66 8.3 3 10 C2.34 9.34 1.68 8.68 1 8 C0.34 8.66 -0.32 9.32 -1 10 C-2.31223496 6.06329512 -1.24296256 3.87511856 0 0 Z " fill="#4297F7" transform="translate(90,422)"/>
<path d="M0 0 C1.32 0.33 2.64 0.66 4 1 C3.67 4.3 3.34 7.6 3 11 C2.34 11 1.68 11 1 11 C1.33 8.36 1.66 5.72 2 3 C-0.31 3 -2.62 3 -5 3 C-5 2.67 -5 2.34 -5 2 C-3.35 2 -1.7 2 0 2 C0 1.34 0 0.68 0 0 Z " fill="#4F98F3" transform="translate(827,538)"/>
<path d="M0 0 C0.33 0 0.66 0 1 0 C1.1953125 2.05078125 1.390625 4.1015625 1.5859375 6.15234375 C1.72257813 6.76207031 1.85921875 7.37179687 2 8 C2.66 8.33 3.32 8.66 4 9 C3.625 11.9375 3.625 11.9375 3 15 C2.01 15.495 2.01 15.495 1 16 C-0.50156874 12.99686252 -0.09281204 10.20932478 -0.0625 6.875 C-0.05347656 5.59367188 -0.04445313 4.31234375 -0.03515625 2.9921875 C-0.02355469 2.00476563 -0.01195312 1.01734375 0 0 Z " fill="#4194F5" transform="translate(810,520)"/>
<path d="M0 0 C0.66 0.66 1.32 1.32 2 2 C1.9765625 4.1640625 1.9765625 4.1640625 1.625 6.625 C1.51414062 7.44226563 1.40328125 8.25953125 1.2890625 9.1015625 C1.19367188 9.72804688 1.09828125 10.35453125 1 11 C0.67 10.01 0.34 9.02 0 8 C-0.99 8 -1.98 8 -3 8 C-2.37240135 5.07120629 -1.41377341 2.63904371 0 0 Z " fill="#EBF1FA" transform="translate(413,512)"/>
<path d="M0 0 C0.66 0.33 1.32 0.66 2 1 C-0.97 5.95 -0.97 5.95 -4 11 C-4.66 9.68 -5.32 8.36 -6 7 C-2.25 1.125 -2.25 1.125 0 0 Z " fill="#3892F4" transform="translate(558,453)"/>
<path d="M0 0 C0.66 0.33 1.32 0.66 2 1 C1.67 1.66 1.34 2.32 1 3 C1.99 3.33 2.98 3.66 4 4 C3.67 5.98 3.34 7.96 3 10 C2.4225 9.38125 1.845 8.7625 1.25 8.125 C-0.80249821 6.18652947 -2.43366582 5.09985751 -5 4 C-3.35 2.68 -1.7 1.36 0 0 Z " fill="#F0F6FA" transform="translate(483,432)"/>
<path d="M0 0 C-6.25 3.125 -6.25 3.125 -10.1328125 2.87890625 C-10.93847656 2.83056641 -11.74414062 2.78222656 -12.57421875 2.73242188 C-13.41597656 2.67634766 -14.25773437 2.62027344 -15.125 2.5625 C-16.39923828 2.48418945 -16.39923828 2.48418945 -17.69921875 2.40429688 C-19.79979124 2.27448622 -21.89994191 2.1378826 -24 2 C-24 1.67 -24 1.34 -24 1 C-21.50018262 0.8301095 -19.00020399 0.66402047 -16.5 0.5 C-15.80390625 0.45230469 -15.1078125 0.40460938 -14.390625 0.35546875 C-9.58304475 0.04386633 -4.81771254 -0.04340282 0 0 Z " fill="#C2D3F8" transform="translate(430,376)"/>
<path d="M0 0 C0.90105469 0.19464844 1.80210937 0.38929688 2.73046875 0.58984375 C3.41753906 0.74582031 4.10460937 0.90179688 4.8125 1.0625 C1.48645049 2.17118317 -1.71808454 2.60427532 -5.1875 3.0625 C-4.5275 3.7225 -3.8675 4.3825 -3.1875 5.0625 C-6.1575 4.5675 -6.1575 4.5675 -9.1875 4.0625 C-8.875 2.125 -8.875 2.125 -8.1875 0.0625 C-4.80475734 -1.06508089 -3.41971777 -0.75500262 0 0 Z " fill="#3999F6" transform="translate(323.1875,242.9375)"/>
<path d="M0 0 C0.33 0 0.66 0 1 0 C0.03644647 11.52164009 0.03644647 11.52164009 -1 17 C-1.33 17 -1.66 17 -2 17 C-2.33 12.38 -2.66 7.76 -3 3 C-2.01 3.495 -2.01 3.495 -1 4 C-0.67 2.68 -0.34 1.36 0 0 Z " fill="#4B96F4" transform="translate(798,489)"/>
<path d="M0 0 C4.87362847 0.45336079 7.39042389 1.7089159 11 5 C10.67 5.99 10.34 6.98 10 8 C10 7.34 10 6.68 10 6 C8.68 5.67 7.36 5.34 6 5 C6 4.67 6 4.34 6 4 C4.35 3.67 2.7 3.34 1 3 C0.67 2.01 0.34 1.02 0 0 Z " fill="#4D97F5" transform="translate(716,384)"/>
<path d="M0 0 C0.66 0.33 1.32 0.66 2 1 C0.5486164 3.56165861 -0.94367243 5.8825934 -3 8 C-6.8125 8.9375 -6.8125 8.9375 -10 9 C-6.83047153 5.73991357 -3.60062011 2.77762123 0 0 Z " fill="#E3F1FC" transform="translate(779,635)"/>
<path d="M0 0 C0.66 0 1.32 0 2 0 C2.2475 0.804375 2.495 1.60875 2.75 2.4375 C3.72238859 5.171081 3.72238859 5.171081 6.125 5.8125 C7.053125 5.9053125 7.053125 5.9053125 8 6 C7.67 7.65 7.34 9.3 7 11 C3.17330957 7.57611908 1.27721526 4.99275057 0 0 Z " fill="#4B97F2" transform="translate(568,525)"/>
<path d="M0 0 C0.33 0.66 0.66 1.32 1 2 C1.66 2 2.32 2 3 2 C3.33 1.34 3.66 0.68 4 0 C3.67 3.3 3.34 6.6 3 10 C2.67 9.34 2.34 8.68 2 8 C1.34 8 0.68 8 0 8 C0 5.36 0 2.72 0 0 Z " fill="#3992F5" transform="translate(403,472)"/>
<path d="M0 0 C0.66 0.33 1.32 0.66 2 1 C-0.37149231 4.82073761 -2.98417842 6.12025373 -7 8 C-7.66 8.66 -8.32 9.32 -9 10 C-9.66 9.34 -10.32 8.68 -11 8 C-7.37 5.36 -3.74 2.72 0 0 Z " fill="#5199F2" transform="translate(331,454)"/>
<path d="M0 0 C1.9375 1.3125 1.9375 1.3125 4 4 C4.6575225 7.65582511 4.87210648 11.29108788 5 15 C3.25050228 12.37575342 2.34610019 10.44272784 1.375 7.5 C0.98441406 6.33984375 0.98441406 6.33984375 0.5859375 5.15625 C0 3 0 3 0 0 Z " fill="#4192F8" transform="translate(88,520)"/>
<path d="M0 0 C0.33 0 0.66 0 1 0 C0.96744792 1.98567708 0.93489583 3.97135417 0.90234375 5.95703125 C0.91736783 8.20305461 0.91736783 8.20305461 2 11 C0.02 11.99 0.02 11.99 -2 13 C-1.85915204 11.20793453 -1.71216299 9.41635083 -1.5625 7.625 C-1.48128906 6.62726563 -1.40007812 5.62953125 -1.31640625 4.6015625 C-1 2 -1 2 0 0 Z " fill="#418FF2" transform="translate(187,446)"/>
<path d="M0 0 C0.66 0 1.32 0 2 0 C1.67 1.65 1.34 3.3 1 5 C-4.61 5 -10.22 5 -16 5 C-16 4.67 -16 4.34 -16 4 C-10.72 4 -5.44 4 0 4 C-0.33 3.01 -0.66 2.02 -1 1 C-0.67 0.67 -0.34 0.34 0 0 Z " fill="#F0F2FE" transform="translate(355,549)"/>
<path d="M0 0 C0.99 0 1.98 0 3 0 C3 0.66 3 1.32 3 2 C5.64 2 8.28 2 11 2 C11 2.33 11 2.66 11 3 C10.37351563 3.02578125 9.74703125 3.0515625 9.1015625 3.078125 C8.28429687 3.13484375 7.46703125 3.1915625 6.625 3.25 C5.81289062 3.29640625 5.00078125 3.3428125 4.1640625 3.390625 C1.81161073 3.7922092 1.81161073 3.7922092 0.7109375 6.046875 C0.47632813 6.69140625 0.24171875 7.3359375 0 8 C0 5.36 0 2.72 0 0 Z " fill="#4A95F1" transform="translate(205,544)"/>
<path d="M0 0 C0 3 0 3 -1 5 C-1.99 5 -2.98 5 -4 5 C-4 5.66 -4 6.32 -4 7 C-6.31 7 -8.62 7 -11 7 C-8.62463329 5.41642219 -6.23494336 3.88406307 -3.8125 2.375 C-2.73935547 1.70597656 -2.73935547 1.70597656 -1.64453125 1.0234375 C-1.10183594 0.68570313 -0.55914063 0.34796875 0 0 Z " fill="#E2EAF9" transform="translate(622,536)"/>
<path d="M0 0 C0 0.99 0 1.98 0 3 C-1.65 3.33 -3.3 3.66 -5 4 C-5 4.99 -5 5.98 -5 7 C-7 8.6875 -7 8.6875 -9 10 C-8.84759391 7.33289346 -8.50635081 5.5494129 -6.66796875 3.5546875 C-2.49375 0 -2.49375 0 0 0 Z " fill="#5DA0F6" transform="translate(264,502)"/>
<path d="M0 0 C0.66 0 1.32 0 2 0 C2 0.99 2 1.98 2 3 C2.99 3.33 3.98 3.66 5 4 C6.6875 7.0625 6.6875 7.0625 8 10 C7.34 10.66 6.68 11.32 6 12 C4.99466333 10.37829621 3.99588093 8.75252763 3 7.125 C2.443125 6.22007812 1.88625 5.31515625 1.3125 4.3828125 C0 2 0 2 0 0 Z " fill="#4394F7" transform="translate(312,502)"/>
<path d="M0 0 C1.04449911 3.13349732 0.93423645 3.98968256 0 7 C1.32 7.33 2.64 7.66 4 8 C2.02 8.66 0.04 9.32 -2 10 C-2 8.35 -2 6.7 -2 5 C-2.66 5 -3.32 5 -4 5 C-3.67 4.34 -3.34 3.68 -3 3 C-2.34 3.33 -1.68 3.66 -1 4 C-0.67 2.68 -0.34 1.36 0 0 Z " fill="#3D91F0" transform="translate(308,430)"/>
<path d="M0 0 C1.03115279 3.26913624 0.9638984 5.86041348 0.5625 9.25 C0.46066406 10.14203125 0.35882813 11.0340625 0.25390625 11.953125 C0.12822266 12.96632813 0.12822266 12.96632813 0 14 C-0.66 14 -1.32 14 -2 14 C-2.33 14.66 -2.66 15.32 -3 16 C-2.40984815 10.49191603 -1.43336231 5.35121931 0 0 Z " fill="#589CF5" transform="translate(437,410)"/>
<path d="M0 0 C1.859375 0.24609375 1.859375 0.24609375 4 1 C5.265625 2.84765625 5.265625 2.84765625 6.25 5.0625 C6.75273438 6.16271484 6.75273438 6.16271484 7.265625 7.28515625 C7.50796875 7.85105469 7.7503125 8.41695313 8 9 C7.34 9 6.68 9 6 9 C5.67 7.68 5.34 6.36 5 5 C3.68 4.67 2.36 4.34 1 4 C0.67 2.68 0.34 1.36 0 0 Z " fill="#4197F4" transform="translate(840,390)"/>
<path d="M0 0 C1.32 0.66 2.64 1.32 4 2 C1.36 3.65 -1.28 5.3 -4 7 C-4 5.68 -4 4.36 -4 3 C-2 1.25 -2 1.25 0 0 Z " fill="#4398F8" transform="translate(292,465)"/>
<path d="M0 0 C0.66 0.33 1.32 0.66 2 1 C2 1.66 2 2.32 2 3 C2.66 3.33 3.32 3.66 4 4 C3.34 4 2.68 4 2 4 C2 4.66 2 5.32 2 6 C0.02 6.99 0.02 6.99 -2 8 C-2.33 7.01 -2.66 6.02 -3 5 C-2.67 4.34 -2.34 3.68 -2 3 C-1.34 3 -0.68 3 0 3 C0 2.01 0 1.02 0 0 Z " fill="#3D97FA" transform="translate(742,430)"/>
<path d="M0 0 C1.32 0.33 2.64 0.66 4 1 C4.33 2.98 4.66 4.96 5 7 C4.34 7 3.68 7 3 7 C2.67 7.66 2.34 8.32 2 9 C1.34 6.03 0.68 3.06 0 0 Z " fill="#F3F9FD" transform="translate(858,423)"/>
<path d="M0 0 C0 0.66 0 1.32 0 2 C2.64 1.67 5.28 1.34 8 1 C4.71508627 3.18994248 3.16904361 3.35277339 -0.6875 3.625 C-2.17830078 3.73714844 -2.17830078 3.73714844 -3.69921875 3.8515625 C-4.83810547 3.92503906 -4.83810547 3.92503906 -6 4 C-2.25 0 -2.25 0 0 0 Z " fill="#4D96F7" transform="translate(736,370)"/>
<path d="M0 0 C0.66 0.99 1.32 1.98 2 3 C1.34 3 0.68 3 0 3 C-0.33 3.99 -0.66 4.98 -1 6 C-2.98 6.33 -4.96 6.66 -7 7 C-2.25 1.125 -2.25 1.125 0 0 Z " fill="#4095F4" transform="translate(164,320)"/>
<path d="M0 0 C0.33 0 0.66 0 1 0 C1 4.29 1 8.58 1 13 C0.01 13.33 -0.98 13.66 -2 14 C-1.85795259 12.41632253 -1.71119847 10.83306682 -1.5625 9.25 C-1.48128906 8.36828125 -1.40007813 7.4865625 -1.31640625 6.578125 C-1.03761535 4.30649548 -0.61209423 2.20148177 0 0 Z " fill="#D4E0FD" transform="translate(795,512)"/>
<path d="M0 0 C0.66 1.32 1.32 2.64 2 4 C2.66 4 3.32 4 4 4 C3 7 3 7 0 9 C-0.84454356 5.62182575 -1.10844919 3.32534757 0 0 Z " fill="#4395F6" transform="translate(179,478)"/>
<path d="M0 0 C0.66 0 1.32 0 2 0 C0.25 7.75 0.25 7.75 -2 10 C-2 9.34 -2 8.68 -2 8 C-2.66 8 -3.32 8 -4 8 C-3.67 7.01 -3.34 6.02 -3 5 C-2.34 5 -1.68 5 -1 5 C-0.67 3.35 -0.34 1.7 0 0 Z " fill="#4D99F7" transform="translate(548,472)"/>
<path d="M0 0 C1 3 1 3 1 5 C1.66 5.33 2.32 5.66 3 6 C2.01 6.66 1.02 7.32 0 8 C-0.73343428 11.06556598 -0.73343428 11.06556598 -1 14 C-1.33 14 -1.66 14 -2 14 C-2.1799928 8.78020872 -1.97094808 4.92737019 0 0 Z " fill="#5195F3" transform="translate(733,458)"/>
<path d="M0 0 C0.33 0.66 0.66 1.32 1 2 C1.66 2.33 2.32 2.66 3 3 C1.87926138 3.83905565 0.75325453 4.67107831 -0.375 5.5 C-1.00148438 5.9640625 -1.62796875 6.428125 -2.2734375 6.90625 C-4 8 -4 8 -6 8 C-6 7.01 -6 6.02 -6 5 C-5.195625 4.731875 -4.39125 4.46375 -3.5625 4.1875 C-2.716875 3.795625 -1.87125 3.40375 -1 3 C-0.67 2.01 -0.34 1.02 0 0 Z " fill="#4796F4" transform="translate(303,457)"/>
<path d="M0 0 C6.0546875 -0.1953125 6.0546875 -0.1953125 8 0 C8.66 0.66 9.32 1.32 10 2 C7.03 2.66 4.06 3.32 1 4 C0.67 2.68 0.34 1.36 0 0 Z " fill="#F0F6FA" transform="translate(283,249)"/>
<path d="M0 0 C0.33 0.99 0.66 1.98 1 3 C1.66 3 2.32 3 3 3 C3 2.01 3 1.02 3 0 C3.66 0 4.32 0 5 0 C4.45773019 3.79588866 2.79872437 5.47211993 0 8 C-0.38063221 5.6739143 -0.71269945 3.33944736 -1 1 C-0.67 0.67 -0.34 0.34 0 0 Z " fill="#3F98F9" transform="translate(819,589)"/>
<path d="M0 0 C0.66 0.33 1.32 0.66 2 1 C0.92456217 1.98783194 -0.16073217 2.96493943 -1.25 3.9375 C-2.15492188 4.75541016 -2.15492188 4.75541016 -3.078125 5.58984375 C-5.08467305 7.06212799 -6.57002449 7.57529189 -9 8 C-6.14723863 5.06799526 -3.34920216 2.35684596 0 0 Z " fill="#D5E4FA" transform="translate(452,467)"/>
<path d="M0 0 C0.66 0.33 1.32 0.66 2 1 C0.73742767 2.17560179 -0.53537084 3.34022865 -1.8125 4.5 C-2.87404297 5.47453125 -2.87404297 5.47453125 -3.95703125 6.46875 C-6 8 -6 8 -9 8 C-9 7.34 -9 6.68 -9 6 C-7.03125 4.4921875 -7.03125 4.4921875 -4.5 2.875 C-3.6646875 2.33617187 -2.829375 1.79734375 -1.96875 1.2421875 C-1.3190625 0.83226562 -0.669375 0.42234375 0 0 Z " fill="#D6E2FA" transform="translate(479,448)"/>
<path d="M0 0 C0.99 0.33 1.98 0.66 3 1 C3.6875 3.0625 3.6875 3.0625 4 5 C5.32 5.33 6.64 5.66 8 6 C4.37 5.67 0.74 5.34 -3 5 C-1.68 4.67 -0.36 4.34 1 4 C0.67 2.68 0.34 1.36 0 0 Z " fill="#439BF9" transform="translate(363,715)"/>
<path d="M0 0 C1.65 0.99 3.3 1.98 5 3 C3.68 4.32 2.36 5.64 1 7 C-0.0625 5.1875 -0.0625 5.1875 -1 3 C-0.67 2.01 -0.34 1.02 0 0 Z " fill="#F1F6F8" transform="translate(185,648)"/>
<path d="M0 0 C0.99 0.33 1.98 0.66 3 1 C-1.455 4.465 -1.455 4.465 -6 8 C-6.66 7.67 -7.32 7.34 -8 7 C-6.74057614 5.80040625 -5.46704714 4.61560557 -4.1875 3.4375 C-3.12595703 2.44556641 -3.12595703 2.44556641 -2.04296875 1.43359375 C-1.36878906 0.96050781 -0.69460938 0.48742187 0 0 Z " fill="#EFF2FA" transform="translate(795,622)"/>
<path d="M0 0 C0.66 0 1.32 0 2 0 C2.33 0.66 2.66 1.32 3 2 C4.32 2 5.64 2 7 2 C7 2.66 7 3.32 7 4 C5.35 4.66 3.7 5.32 2 6 C1.34 5.34 0.68 4.68 0 4 C0 2.68 0 1.36 0 0 Z " fill="#4A9CF7" transform="translate(457,476)"/>
<path d="M0 0 C-0.33 1.32 -0.66 2.64 -1 4 C-4.01031744 4.93423645 -4.86650268 5.04449911 -8 4 C-2.25 0 -2.25 0 0 0 Z " fill="#E5F0FB" transform="translate(304,462)"/>
<path d="M0 0 C0.66 1.32 1.32 2.64 2 4 C0.35 4.66 -1.3 5.32 -3 6 C-3.66 5.34 -4.32 4.68 -5 4 C-3.35 2.68 -1.7 1.36 0 0 Z " fill="#3F97F2" transform="translate(170,315)"/>
<path d="M0 0 C6.875 3.75 6.875 3.75 8 6 C5.69 6 3.38 6 1 6 C1.33 4.68 1.66 3.36 2 2 C1.34 2 0.68 2 0 2 C0 1.34 0 0.68 0 0 Z " fill="#3C93F6" transform="translate(762,304)"/>
<path d="M0 0 C-1.4638611 4.39158329 -3.97831338 4.87947433 -8 7 C-8 6.34 -8 5.68 -8 5 C-7.34 5 -6.68 5 -6 5 C-5.896875 4.360625 -5.79375 3.72125 -5.6875 3.0625 C-5.460625 2.381875 -5.23375 1.70125 -5 1 C-2 0 -2 0 0 0 Z " fill="#4299F6" transform="translate(759,649)"/>
<path d="M0 0 C0 0.99 0 1.98 0 3 C-1.98 3.66 -3.96 4.32 -6 5 C-6 3.68 -6 2.36 -6 1 C-3 0 -3 0 0 0 Z " fill="#4397F6" transform="translate(614,539)"/>
<path d="M0 0 C0.33 0.66 0.66 1.32 1 2 C0.01 3.485 0.01 3.485 -1 5 C-1.38499891 6.65549531 -1.72793135 8.3222433 -2 10 C-2.99 10 -3.98 10 -5 10 C-4.38545304 6.00544473 -2.29353263 3.25533664 0 0 Z " fill="#5EA1F4" transform="translate(660,518)"/>
<path d="M0 0 C0.99 0 1.98 0 3 0 C2.67 3.3 2.34 6.6 2 10 C1.67 10 1.34 10 1 10 C0.67 6.7 0.34 3.4 0 0 Z " fill="#3C91F6" transform="translate(155,488)"/>
<path d="M0 0 C2.31 0.66 4.62 1.32 7 2 C5.625 3.5 5.625 3.5 4 5 C3.34 5 2.68 5 2 5 C2 4.34 2 3.68 2 3 C1.01 3 0.02 3 -1 3 C-0.67 2.01 -0.34 1.02 0 0 Z " fill="#3C96F8" transform="translate(457,457)"/>
<path d="M0 0 C0.33 0 0.66 0 1 0 C1 1.98 1 3.96 1 6 C1.66 6 2.32 6 3 6 C2 8 2 8 0 9 C-0.66 9.99 -1.32 10.98 -2 12 C-1 3.42857143 -1 3.42857143 0 0 Z " fill="#4B96F3" transform="translate(273,432)"/>
<path d="M0 0 C2.31 1.98 4.62 3.96 7 6 C6.34 6.66 5.68 7.32 5 8 C5 7.34 5 6.68 5 6 C3.68 5.67 2.36 5.34 1 5 C0.67 3.35 0.34 1.7 0 0 Z " fill="#3D95F5" transform="translate(801,336)"/>
<path d="M0 0 C5.94 2.475 5.94 2.475 12 5 C8.6699024 6.11003253 8.02156559 5.9343162 4.875 4.75 C4.17117188 4.49734375 3.46734375 4.2446875 2.7421875 3.984375 C1 3 1 3 0 0 Z " fill="#519AF1" transform="translate(702,269)"/>
<path d="M0 0 C0.66 0.33 1.32 0.66 2 1 C0.875 3.5 0.875 3.5 -1 6 C-4.1875 6.3125 -4.1875 6.3125 -7 6 C-4.83312509 3.72478134 -2.54379491 1.84205838 0 0 Z " fill="#DDEEFB" transform="translate(766,645)"/>
<path d="M0 0 C0.99 0 1.98 0 3 0 C1.84826645 2.46800047 0.95216435 4.04783565 -1 6 C-1.99 5.67 -2.98 5.34 -4 5 C-2.1875 2.5 -2.1875 2.5 0 0 Z " fill="#F4F8F9" transform="translate(821,594)"/>
<path d="M0 0 C1.2077558 3.62326739 0.54311128 4.64146369 -1 8 C-1.99 7.67 -2.98 7.34 -4 7 C-3.34 7 -2.68 7 -2 7 C-2.33 5.02 -2.66 3.04 -3 1 C-2.01 0.67 -1.02 0.34 0 0 Z " fill="#DDE9FC" transform="translate(190,548)"/>
<path d="M0 0 C0.99 0 1.98 0 3 0 C3 0.66 3 1.32 3 2 C3.66 2.33 4.32 2.66 5 3 C2.09399739 4.25664978 0.20395416 5 -3 5 C-3 4.34 -3 3.68 -3 3 C-2.01 2.34 -1.02 1.68 0 1 C0 0.67 0 0.34 0 0 Z " fill="#4591F5" transform="translate(765,419)"/>
<path d="M0 0 C1.88343932 3.76687864 2.22057835 5.02958963 2 9 C1.01 9 0.02 9 -1 9 C-0.67 6.03 -0.34 3.06 0 0 Z " fill="#4697F7" transform="translate(441,391)"/>
<path d="M0 0 C6.0546875 -0.1953125 6.0546875 -0.1953125 8 0 C8.66 0.66 9.32 1.32 10 2 C6.6875 2.6875 6.6875 2.6875 3 3 C1.0625 1.5625 1.0625 1.5625 0 0 Z " fill="#4D96F5" transform="translate(408,386)"/>
<path d="M0 0 C3.36591866 1.44253657 5.51047079 3.33264727 8 6 C5.69 5.34 3.38 4.68 1 4 C0.67 2.68 0.34 1.36 0 0 Z " fill="#3F94F5" transform="translate(774,313)"/>
<path d="M0 0 C5.75 1.75 5.75 1.75 8 4 C7.01 4.33 6.02 4.66 5 5 C5 4.34 5 3.68 5 3 C4.38125 3.20625 3.7625 3.4125 3.125 3.625 C2.42375 3.74875 1.7225 3.8725 1 4 C0.34 3.34 -0.32 2.68 -1 2 C-0.67 1.34 -0.34 0.68 0 0 Z " fill="#3F95F3" transform="translate(728,283)"/>
<path d="M0 0 C0.66 0.33 1.32 0.66 2 1 C-0.25 3.5625 -0.25 3.5625 -3 6 C-4.32 5.67 -5.64 5.34 -7 5 C-4.69 3.35 -2.38 1.7 0 0 Z " fill="#5E9FF4" transform="translate(638,542)"/>
<path d="M0 0 C1 3 1 3 1 6 C-0.98 6.33 -2.96 6.66 -5 7 C-3.35 4.69 -1.7 2.38 0 0 Z " fill="#DEEBF9" transform="translate(146,536)"/>
<path d="M0 0 C3.80666984 1.44390925 5.26602582 3.34952803 7 7 C6.67 7.66 6.34 8.32 6 9 C4.99406757 7.8803014 3.9954151 6.7540588 3 5.625 C2.443125 4.99851562 1.88625 4.37203125 1.3125 3.7265625 C0 2 0 2 0 0 Z " fill="#5494F7" transform="translate(328,528)"/>
<path d="M0 0 C0.33 0 0.66 0 1 0 C1 2.64 1 5.28 1 8 C-2.875 3.25 -2.875 3.25 -4 1 C-2.68 1.33 -1.36 1.66 0 2 C0 1.34 0 0.68 0 0 Z " fill="#3A94F3" transform="translate(491,523)"/>
<path d="M0 0 C1.5625 1.0625 1.5625 1.0625 3 3 C2.6875 6.6875 2.6875 6.6875 2 10 C1.01 9.34 0.02 8.68 -1 8 C-0.67 5.36 -0.34 2.72 0 0 Z " fill="#4099F4" transform="translate(394,520)"/>
<path d="M0 0 C-1 2 -2 4 -3 6 C-3.66 6 -4.32 6 -5 6 C-5.33 5.01 -5.66 4.02 -6 3 C-2.25 0 -2.25 0 0 0 Z " fill="#4A99F4" transform="translate(501,447)"/>
<path d="M0 0 C0.99 0 1.98 0 3 0 C2.34 3.3 1.68 6.6 1 10 C0.67 10 0.34 10 0 10 C0 6.7 0 3.4 0 0 Z " fill="#4594F5" transform="translate(254,432)"/>
<path d="M0 0 C0.99 0.33 1.98 0.66 3 1 C2.67 4.3 2.34 7.6 2 11 C1.67 11 1.34 11 1 11 C0.67 7.37 0.34 3.74 0 0 Z " fill="#4395F8" transform="translate(724,394)"/>
<path d="M0 0 C0.33 0 0.66 0 1 0 C1.33 1.98 1.66 3.96 2 6 C3.65 6.33 5.3 6.66 7 7 C7 7.33 7 7.66 7 8 C4.36 8 1.72 8 -1 8 C-0.67 5.36 -0.34 2.72 0 0 Z " fill="#C9DDFE" transform="translate(246,379)"/>
<path d="M0 0 C1.32 0.66 2.64 1.32 4 2 C1.525 3.485 1.525 3.485 -1 5 C-1 4.34 -1 3.68 -1 3 C-1.66 2.67 -2.32 2.34 -3 2 C-2.01 1.34 -1.02 0.68 0 0 Z " fill="#429AF8" transform="translate(207,289)"/>
<path d="M0 0 C2.4375 1.25 2.4375 1.25 3.4375 4.25 C-2.3125 2.5 -2.3125 2.5 -4.5625 0.25 C-2.5625 -0.75 -2.5625 -0.75 0 0 Z " fill="#4597F6" transform="translate(256.5625,684.75)"/>
<path d="M0 0 C0.66 0 1.32 0 2 0 C0.25 5.75 0.25 5.75 -2 8 C-2.66 7.67 -3.32 7.34 -4 7 C-4 6.34 -4 5.68 -4 5 C-3.01 4.34 -2.02 3.68 -1 3 C-0.67 2.01 -0.34 1.02 0 0 Z " fill="#3A94F5" transform="translate(844,555)"/>
<path d="M0 0 C2.64 0 5.28 0 8 0 C7.67 1.32 7.34 2.64 7 4 C4.97954558 3.39816251 2.97888961 2.72693904 1 2 C0.67 1.34 0.34 0.68 0 0 Z " fill="#4C95F8" transform="translate(336,538)"/>
<path d="M0 0 C0.33 0.99 0.66 1.98 1 3 C-1.97 2.67 -4.94 2.34 -8 2 C-8 1.67 -8 1.34 -8 1 C-5.23735711 0.40267181 -2.83967231 0 0 0 Z " fill="#529CF7" transform="translate(821,537)"/>
<path d="M0 0 C0.99 0.66 1.98 1.32 3 2 C-1.75 5 -1.75 5 -4 5 C-4.33 4.01 -4.66 3.02 -5 2 C-4.34 1.67 -3.68 1.34 -3 1 C-2.01 1.33 -1.02 1.66 0 2 C0 1.34 0 0.68 0 0 Z " fill="#E6F0FC" transform="translate(344,443)"/>
</svg>
